# xmcd
#
# Track frame offsets:
#	150
#	14122
#	27495
#	41847
#	54247
#	67447
#	74982
#	88215
#	102175
#	115340
#	128162
#	145572
#	159227
#	169354
#	180154
#	190589
#	198217
#	213282
#	225634
#	236379
#	247329
#	256569
#	266544
#	275777
#
# Disc length: 3896 seconds
#
# Revision: 1
# Processed by: cddbd v1.4PL0 Copyright (c) Steve Scherf et al.
# Submitted via: EasyCDDAExtractor 6.0.0.1
#
DISCID=640f3618
DTITLE=Julie London - About The Blues - Julie at Home
DYEAR=1957
DGENRE=Blues
TTITLE0=Basin Street Blues
TTITLE1=I Gotta Right To Sing The Blues
TTITLE2=A Nightingale Can Sing The Blues
TTITLE3=Get Set For The Blues
TTITLE4=Invitation To The Blues
TTITLE5=Bye Bye Blues
TTITLE6=Meaning Of The Blues
TTITLE7=About The Blues
TTITLE8=Sunday Blues
TTITLE9=The Blues Is All I Ever Had
TTITLE10=Blues In The Night
TTITLE11=Bouquet Of Blues
TTITLE12=You'd Bo So Nice To Come Home To
TTITLE13=Lonesome Road
TTITLE14=They Didn't Believe Me
TTITLE15=By Myself
TTITLE16=The Thrill Is Gone
TTITLE17=You've Changed
TTITLE18=Goodbye
TTITLE19=Sentimental Journey
TTITLE20=Give Me The Simple Life
TTITLE21=You Stepped Out Of A Dream
TTITLE22=Let There Be Love
TTITLE23=Everything Happens To Me
EXTD=
EXTT0=
EXTT1=
EXTT2=
EXTT3=
EXTT4=
EXTT5=
EXTT6=
EXTT7=
EXTT8=
EXTT9=
EXTT10=
EXTT11=
EXTT12=
EXTT13=
EXTT14=
EXTT15=
EXTT16=
EXTT17=
EXTT18=
EXTT19=
EXTT20=
EXTT21=
EXTT22=
EXTT23=
PLAYORDER=
